<svg width="11.000000" height="18.000000" viewBox="0 0 11 18" fill="none" xmlns="http://www.w3.org/2000/svg" xmlns:xlink="http://www.w3.org/1999/xlink">
	<desc>
			Created with Pixso.
	</desc>
	<path d="M7.91699 8.97461C6.84082 8.00293 5.79004 7.05273 4.74023 6.10449C3.34473 4.84277 1.94922 3.5791 0.551758 2.32031C0.204102 2.00684 0.00976562 1.625 0.0678711 1.1377C0.12793 0.642578 0.382324 0.285156 0.825195 0.0996094C1.28125 -0.0917969 1.70312 -0.00195312 2.07227 0.328125C2.81055 0.987305 3.54199 1.65332 4.27637 2.31641C6.33496 4.17578 8.39209 6.03711 10.4541 7.89258C10.8613 8.25781 11.1074 8.69336 10.9541 9.25684C10.8818 9.51953 10.7275 9.7998 10.5327 9.97656C7.69922 12.5557 4.85254 15.1201 2.00586 17.6836C1.48145 18.1562 0.73291 18.0889 0.297852 17.5518C-0.154297 16.9932 -0.0869141 16.2139 0.468262 15.7129C2.87109 13.54 5.27637 11.3691 7.68066 9.19727C7.75195 9.13379 7.82031 9.06641 7.91699 8.97461L7.91699 8.97461Z" fill-rule="evenodd" fill="#3E3E4C"/>
	<defs/>
</svg>
