<svg width="24.417480" height="18.000000" viewBox="0 0 24.4175 18" fill="none" xmlns="http://www.w3.org/2000/svg" xmlns:xlink="http://www.w3.org/1999/xlink">
	<desc>
			Created with Pixso.
	</desc>
	<path d="M0 8.85547C0.108887 8.71094 0.202148 8.55078 0.328613 8.42432C3.03418 5.7124 5.74316 3.00439 8.45264 0.295898C8.52002 0.229004 8.58789 0.160156 8.66602 0.106445C8.90942 -0.0615234 9.22485 -0.0273438 9.42725 0.182617C9.62134 0.383301 9.6521 0.693359 9.49146 0.927246C9.43335 1.01123 9.35815 1.08447 9.2854 1.15723C6.96509 3.479 4.64404 5.7998 2.32251 8.11963C2.24976 8.19238 2.16675 8.25537 2.08862 8.32275L2.3938 8.39941C7.72681 8.39941 13.0593 8.39941 18.3918 8.39941C20.1243 8.39941 21.8574 8.39941 23.5898 8.39941C23.6689 8.39941 23.7488 8.39648 23.8279 8.40234C24.1775 8.42969 24.4177 8.67383 24.4175 8.99854C24.4172 9.32373 24.179 9.56543 23.8264 9.59277C23.7234 9.60107 23.6199 9.59766 23.5164 9.59766C16.4832 9.59766 9.44971 9.59766 2.41626 9.59766L2.06152 9.59766C2.16602 9.70947 2.22656 9.77832 2.29126 9.84326C4.62866 12.1816 6.96753 14.5186 9.30151 16.8594C9.41528 16.9736 9.521 17.1172 9.57397 17.2671C9.65405 17.4956 9.53735 17.7568 9.33569 17.8931C9.12305 18.0371 8.90039 18.0312 8.68579 17.9014C8.59888 17.8486 8.52563 17.7715 8.45264 17.6987C5.74341 14.9907 3.03418 12.2827 0.328613 9.57129C0.202148 9.44434 0.108887 9.28564 0 9.1416L0 8.85547Z" fill-rule="evenodd" fill="#3E3E4C"/>
	<defs/>
</svg>
