<svg width="28.901367" height="23.639160" viewBox="0 0 28.9014 23.6392" fill="none" xmlns="http://www.w3.org/2000/svg" xmlns:xlink="http://www.w3.org/1999/xlink">
	<desc>
			Created with Pixso.
	</desc>
	<mask id="mask1_3881" mask-type="alpha" maskUnits="userSpaceOnUse" x="0.000000" y="0.000000" width="28.901367" height="23.639160">
		<rect width="28.900999" height="23.639000" fill="#C4C4C4"/>
	</mask>
	<g mask="url(#mask1_3881)">
		<path d="M28.8936 6.98828C28.8936 6.66895 28.8584 6.35303 28.752 6.04639C28.3203 4.79932 27.0762 3.90527 25.7588 3.90234C24.5664 3.90039 23.3721 3.9043 22.1787 3.90039C21.8809 3.90039 21.8564 3.87109 21.8506 3.5791C21.8457 3.354 21.8535 3.12793 21.8477 2.90332C21.8008 1.07617 20.3086 -0.015625 18.9082 0C15.9023 0.0361328 12.8945 0.0263672 9.8877 0.00439453C8.78613 -0.00488281 7.56152 0.791992 7.19141 1.95117C7.03613 2.43604 7.01172 2.92725 7.01758 3.42627C7.02344 3.90137 7.01758 3.90234 6.56055 3.90234C5.39648 3.90234 4.23145 3.89111 3.06641 3.90527C2.12988 3.91602 1.36133 4.31201 0.740234 5.00098C0.321289 5.46631 0.0605469 6.0083 0 6.63721L0 20.79C0.0576172 21.0073 0.0283203 21.2363 0.0957031 21.4531C0.485352 22.6924 1.75195 23.6362 3.05566 23.6372C10.6377 23.6401 18.2207 23.6372 25.8027 23.6392C27.3682 23.6392 28.9082 22.269 28.9014 20.5464C28.8838 16.0273 28.8965 11.5083 28.8936 6.98828L28.8936 6.98828M14.4346 20.8242C10.5723 20.8262 7.39941 17.6592 7.38574 13.7871C7.37305 9.91211 10.5537 6.72607 14.4336 6.72607C18.3174 6.72607 21.4941 9.91016 21.4824 13.7871C21.4697 17.6602 18.3027 20.8223 14.4346 20.8242L14.4346 20.8242Z" fill-rule="evenodd" fill="#EDEDF1"/>
	</g>
	<g mask="url(#mask1_3881)">
		<path d="M14.4346 6.72607C10.5547 6.7251 7.375 9.91113 7.3877 13.7871C7.40039 17.6592 10.5713 20.8262 14.4346 20.8242C18.3037 20.8213 21.4697 17.6592 21.4814 13.7861C21.4951 9.90918 18.3164 6.72607 14.4346 6.72607L14.4346 6.72607M14.4277 18.4243C11.8711 18.4199 9.80078 16.354 9.78125 13.7861C9.76074 11.2358 11.8662 9.12207 14.4277 9.11816C16.9912 9.11426 19.0879 11.209 19.0889 13.7729C19.0889 16.3379 16.9941 18.4282 14.4277 18.4243L14.4277 18.4243Z" fill-rule="evenodd" fill="#FEFEFE"/>
	</g>
	<g mask="url(#mask1_3881)">
		<path d="M14.4287 9.11816C11.8652 9.12207 9.76074 11.2363 9.78027 13.7861C9.80176 16.354 11.8701 18.4204 14.4277 18.4243C16.9932 18.4282 19.0898 16.3384 19.0889 13.7729C19.0889 11.209 16.9902 9.11426 14.4287 9.11816L14.4287 9.11816Z" fill-rule="evenodd" fill="#EDEDF1"/>
	</g>
	<defs/>
</svg>
