<svg width="18.116226" height="21.999878" viewBox="0 0 18.1162 21.9999" fill="none" xmlns="http://www.w3.org/2000/svg" xmlns:xlink="http://www.w3.org/1999/xlink">
	<desc>
			Created with Pixso.
	</desc>
	<path d="M18.1152 19.7151C18.0887 18.7843 18.0341 17.8542 17.989 16.924C17.8853 14.7891 17.7806 12.6543 17.6748 10.5194C17.6162 9.33777 17.5745 8.15479 17.4887 6.97498C17.4034 5.80127 16.4343 4.9613 15.2107 4.95312C14.7509 4.95007 14.2907 4.94409 13.8313 4.95679C13.6582 4.96167 13.6199 4.90808 13.6278 4.75256C13.6454 4.40173 13.6332 4.05017 13.5749 3.70227C13.2667 1.86182 11.8068 0.439209 9.8529 0.0736084C8.03554 -0.266479 6.09584 0.595337 5.12921 2.17126C4.64325 2.9635 4.45346 3.82446 4.50064 4.73596C4.5103 4.92212 4.44704 4.96082 4.26627 4.95667C3.77504 4.94531 3.28311 4.94556 2.79181 4.95667C1.69381 4.98145 0.706064 5.85706 0.644072 6.9126C0.51589 9.09192 0.418737 11.2731 0.310139 13.4535C0.220171 15.2605 0.129885 17.0674 0.0445576 18.8745C0.0237026 19.316 -0.044075 19.7617 0.0441132 20.1996C0.262262 21.2821 1.18178 21.9957 2.34807 21.9974C4.5838 22.0007 6.8196 21.9984 9.05533 21.9983C11.307 21.9983 13.5586 22.0029 15.8102 21.9966C17.1509 21.9928 18.1519 21.004 18.1152 19.7151ZM5.14485 8.29102C5.61071 8.18164 5.98489 8.43787 6.11619 8.95618C6.43143 10.2 7.43965 11.1376 8.61929 11.2838C9.95457 11.4493 11.1435 10.8567 11.766 9.71277C11.9027 9.46167 11.991 9.19189 12.0607 8.91504C12.1841 8.4259 12.5856 8.17334 13.0394 8.2948C13.4494 8.40454 13.6636 8.81238 13.5538 9.27417C13.0541 11.3761 11.2347 12.812 9.07377 12.8097C6.94638 12.8076 5.13951 11.3928 4.62386 9.32544C4.49663 8.81543 4.70925 8.39331 5.14485 8.29102ZM7.09001 2.18115C7.99459 1.45105 9.032 1.26843 10.1345 1.66821C11.2174 2.06091 11.8541 2.84338 12.068 3.94226C12.1226 4.22278 12.094 4.50525 12.1125 4.78613C12.1227 4.94019 12.0563 4.95581 11.9217 4.95508C10.9633 4.9502 10.0049 4.95251 9.04636 4.95251C8.11165 4.95251 7.17686 4.94629 6.24227 4.95752C6.04733 4.95984 6.02126 4.8988 6.01389 4.72986C5.97002 3.71948 6.27165 2.84167 7.09001 2.18115Z" fill-rule="evenodd" fill="#B1B2C3"/>
	<defs/>
</svg>
