<svg id="cart_at" xmlns="http://www.w3.org/2000/svg" width="18.116" height="22" viewBox="0 0 18.116 22">
  <path id="패스_1" data-name="패스 1" d="M18.115,19.715c-.026-.931-.081-1.861-.126-2.791q-.155-3.2-.314-6.4c-.059-1.182-.1-2.365-.186-3.544a2.2,2.2,0,0,0-2.278-2.022c-.46,0-.92-.009-1.379,0-.173,0-.211-.049-.2-.2a4.868,4.868,0,0,0-.053-1.05A4.5,4.5,0,0,0,9.853.074a4.641,4.641,0,0,0-4.724,2.1A4.358,4.358,0,0,0,4.5,4.736c.01.186-.054.225-.234.221q-.737-.017-1.474,0A2.2,2.2,0,0,0,.644,6.913C.516,9.092.419,11.273.31,13.453Q.175,16.164.045,18.875a5.388,5.388,0,0,0,0,1.325,2.252,2.252,0,0,0,2.3,1.8Q5.7,22,9.055,22c2.252,0,4.5,0,6.755,0a2.215,2.215,0,0,0,2.305-2.281h0M5.145,8.291a.785.785,0,0,1,.971.665,3.044,3.044,0,0,0,5.65.757,3.377,3.377,0,0,0,.295-.8.77.77,0,1,1,1.493.359,4.6,4.6,0,0,1-8.93.051.778.778,0,0,1,.521-1.034h0M7.09,2.181a2.985,2.985,0,0,1,3.044-.513,2.862,2.862,0,0,1,1.934,2.274,6.606,6.606,0,0,1,.045.844c.01.154-.056.17-.191.169-.958,0-1.917,0-2.875,0-.935,0-1.87-.006-2.8.005-.195,0-.221-.059-.228-.228A2.917,2.917,0,0,1,7.09,2.181Z" fill="#3d40e0" fill-rule="evenodd"/>
</svg>
