<svg width="16.656464" height="20.227295" viewBox="0 0 16.6565 20.2273" fill="none" xmlns="http://www.w3.org/2000/svg" xmlns:xlink="http://www.w3.org/1999/xlink">
	<desc>
			Created with Pixso.
	</desc>
	<mask id="mask1_560" mask-type="alpha" maskUnits="userSpaceOnUse" x="0.000000" y="0.000000" width="16.656464" height="20.227295">
		<rect width="16.656462" height="20.227295" fill="#696A81"/>
	</mask>
	<g mask="url(#mask1_560)">
		<path d="M16.5395 15.5603C16.4442 13.5974 16.3479 11.6345 16.2506 9.67188C16.1967 8.58545 16.1583 7.4978 16.0795 6.41284C16.001 5.33374 15.1101 4.56152 13.985 4.55396C13.5622 4.55127 13.1392 4.54565 12.7168 4.55737C12.5577 4.56177 12.5225 4.5127 12.5296 4.36963C12.5459 4.04712 12.5346 3.72388 12.481 3.40405C12.1978 1.71167 10.8554 0.403809 9.05894 0.067627C7.38802 -0.244873 5.60461 0.547363 4.71593 1.99634C4.26906 2.72485 4.09462 3.51636 4.138 4.35425C4.14684 4.52539 4.08867 4.56104 3.92247 4.55713C3.47081 4.54688 3.01852 4.54712 2.5668 4.55713C1.55728 4.58008 0.649185 5.38525 0.592133 6.35547C0.474274 8.35938 0.38501 10.3647 0.285156 12.3694C0.202393 14.0308 0.119431 15.6921 0.0409241 17.3538C0.0217438 17.7595 -0.0405731 18.1694 0.0405731 18.572C0.241089 19.5674 1.08658 20.2234 2.15887 20.2249C4.21446 20.228 6.27005 20.2258 8.32568 20.2258C10.3959 20.2258 12.466 20.23 14.5362 20.2241C15.7689 20.2207 16.6893 19.3115 16.6555 18.1265C16.6312 17.2708 16.581 16.4155 16.5395 15.5603ZM6.51868 2.00537C7.35042 1.33423 8.30418 1.16626 9.31786 1.53369C10.3135 1.89478 10.899 2.61426 11.0956 3.62476C11.1457 3.88257 11.1195 4.14233 11.1365 4.40039C11.1458 4.54224 11.0848 4.5564 10.9611 4.55591C10.0799 4.55127 9.19865 4.55347 8.31738 4.55347C7.45799 4.55347 6.59853 4.54761 5.7393 4.55811C5.56007 4.5603 5.53604 4.50415 5.52931 4.34863C5.48892 3.41992 5.76631 2.61279 6.51868 2.00537ZM14.5032 18.8774C12.448 18.8787 10.3927 18.8779 8.33755 18.8779C6.30418 18.8779 4.27081 18.8779 2.23746 18.8779C1.6496 18.8779 1.38722 18.6143 1.41493 18.0442C1.57372 14.7778 1.73395 11.5117 1.89348 8.24561C1.9209 7.68506 1.94002 7.12378 1.9769 6.56372C2.00449 6.14551 2.28452 5.90625 2.72394 5.90503C6.45525 5.89404 10.1866 5.88379 13.9178 5.87402C14.3851 5.8728 14.6686 6.11914 14.6933 6.57642C14.7663 7.92871 14.8285 9.28174 14.8949 10.6343C14.9911 12.5969 15.0877 14.5593 15.1832 16.5217C15.2095 17.0615 15.237 17.6011 15.2563 18.1411C15.2724 18.593 14.98 18.8772 14.5032 18.8774Z" fill-rule="evenodd" fill="#696A81"/>
	</g>
	<g mask="url(#mask1_560)">
		<path d="M11.9888 7.62646C11.5715 7.51465 11.2023 7.74683 11.089 8.19653C11.0248 8.45117 10.9436 8.69922 10.818 8.93018C10.2456 9.98169 9.15247 10.5266 7.92477 10.3745C6.84019 10.24 5.91321 9.37793 5.62344 8.23438C5.50266 7.75781 5.15863 7.52222 4.73036 7.6228C4.3298 7.7168 4.13431 8.10498 4.2513 8.57397C4.7254 10.4746 6.38667 11.7754 8.34265 11.7773C10.3294 11.7795 12.0022 10.4592 12.4617 8.52661C12.5627 8.10229 12.3657 7.72729 11.9888 7.62646Z" fill-rule="evenodd" fill="#696A81"/>
	</g>
	<defs/>
</svg>
