<svg width="17.300049" height="12.493896" viewBox="0 0 17.3 12.4939" fill="none" xmlns="http://www.w3.org/2000/svg" xmlns:xlink="http://www.w3.org/1999/xlink">
	<desc>
			Created with Pixso.
	</desc>
	<path d="M0 6.07568C0.0742188 5.75757 0.192383 5.46265 0.442627 5.23877C1.03174 4.71143 1.82178 4.74927 2.4104 5.33887C3.63477 6.56445 4.85645 7.79272 6.07812 9.021C6.12549 9.0686 6.15991 9.12891 6.2229 9.21338C6.29565 9.12134 6.33252 9.06348 6.37988 9.01611C9.21484 6.16895 12.0513 3.32324 14.8857 0.475586C15.3091 0.050293 15.7983 -0.107422 16.3794 0.074707C17.2441 0.346191 17.5906 1.49414 17.0212 2.2019C16.9543 2.28516 16.8838 2.3667 16.8083 2.44238C13.6348 5.62939 10.4602 8.81519 7.28735 12.0029C6.86084 12.4316 6.36597 12.6162 5.78418 12.4084C5.57495 12.3335 5.36987 12.1948 5.21069 12.0369C3.61841 10.4531 2.03687 8.8584 0.449951 7.2688C0.210449 7.02881 0.0712891 6.74146 0 6.41504L0 6.07568Z" fill-rule="evenodd" fill="#F5F6F8"/>
	<defs/>
</svg>
