<svg xmlns="http://www.w3.org/2000/svg" width="21.089" height="18.98" viewBox="0 0 21.089 18.98">
  <path id="ico_heart_nc" d="M20.987,4.929A6.938,6.938,0,0,0,20.261,3,5.839,5.839,0,0,0,17.928.7,5.768,5.768,0,0,0,15.692.041a5.264,5.264,0,0,0-3.13.665,6.114,6.114,0,0,0-1.867,1.632c-.141.183-.156.18-.3,0a6.822,6.822,0,0,0-.984-1.025A5.366,5.366,0,0,0,4.109.3,5.8,5.8,0,0,0,.327,4.111,6.243,6.243,0,0,0,0,5.744V7.153c.061.261.05.531.111.793a8.374,8.374,0,0,0,1.48,3.094,18.709,18.709,0,0,0,2.342,2.578c.614.571,1.234,1.137,1.866,1.687,1.25,1.088,2.514,2.158,3.755,3.256a1.373,1.373,0,0,0,1.977,0c.055-.052.11-.1.168-.153.839-.711,1.663-1.44,2.5-2.156q1.221-1.047,2.414-2.125A23.06,23.06,0,0,0,19.1,11.566a9.439,9.439,0,0,0,1.737-3.079,6.526,6.526,0,0,0,.256-1.333V5.786c-.059-.282-.038-.573-.1-.856Z" fill="#ddd" fill-rule="evenodd"/>
</svg>
