<svg width="11.000000" height="18.000000" viewBox="0 0 11 18" fill="none" xmlns="http://www.w3.org/2000/svg" xmlns:xlink="http://www.w3.org/1999/xlink">
	<desc>
			Created with Pixso.
	</desc>
	<path id="패스 103" d="M3.08301 9.02539C4.15918 9.99707 5.20996 10.9473 6.25977 11.8955C7.65527 13.1572 9.05078 14.4209 10.4482 15.6797C10.7959 15.9932 10.9902 16.375 10.9316 16.8623C10.8721 17.3574 10.6172 17.7148 10.1748 17.9004C9.71875 18.0918 9.29688 18.002 8.92773 17.6719C8.18945 17.0127 7.45801 16.3467 6.72363 15.6836C4.66504 13.8242 2.60742 11.9629 0.545898 10.1074C0.138672 9.74219 -0.107422 9.30664 0.0458984 8.74316C0.118164 8.48047 0.272461 8.2002 0.466797 8.02344C3.30078 5.44434 6.14746 2.87988 8.99414 0.316406C9.51855 -0.15625 10.2676 -0.0888672 10.7021 0.448242C11.1543 1.00684 11.0869 1.78613 10.5312 2.28711C8.12891 4.45996 5.72363 6.63086 3.31934 8.80273C3.24805 8.86621 3.17969 8.93359 3.08301 9.02539Z" fill-rule="evenodd" fill="#000000"/>
	<defs/>
</svg>
