<svg width="65.363327" height="20.251953" viewBox="0 0 65.3633 20.252" fill="none" xmlns="http://www.w3.org/2000/svg" xmlns:xlink="http://www.w3.org/1999/xlink">
	<desc>
			Created with Pixso.
	</desc>
	<path d="M33.6777 15.3043L33.6777 0.143799L37.8687 0.143799C37.8687 1.85779 37.8684 3.5675 37.8687 5.27698C37.8687 5.60596 37.802 5.95459 37.8896 6.25842C37.9724 6.54407 38.2183 6.78259 38.3926 7.04175C38.5667 6.78577 38.8835 6.53394 38.8916 6.27295C38.9387 4.67065 38.9165 3.06628 38.9172 1.4624C38.9172 1.02075 38.9172 0.579102 38.9172 0.000732422C40.2151 0.000732422 41.3572 -0.00146484 42.4993 0.00146484C43.3723 0.00390625 43.1719 0.66748 43.1729 1.15869C43.1833 5.76428 43.1794 10.3694 43.1794 14.975C43.1794 16.6964 43.1794 18.4178 43.1794 20.2322L38.9783 20.2322L38.9783 11.4117C37.9985 10.946 37.8564 11.3977 37.8618 12.1575C37.8799 14.7443 37.8689 17.3315 37.8689 20.0175L33.6875 20.0175L33.6875 17.0503C32.6794 17.6576 31.8557 18.1538 30.9097 18.7239C29.98 16.9559 29.0903 15.2634 28.1365 13.4496C27.1887 15.3597 26.2935 17.1643 25.3264 19.1128C24.1733 18.4354 23.1023 17.8066 22.0015 17.1605C23.5706 12.9537 26.4343 9.20117 25.6047 4.29333L23.1257 4.29333L23.1257 0.43103L32.8123 0.43103L32.8123 4.19861C31.9712 4.2417 31.1741 4.28186 30.3713 4.32275C29.5974 8.5481 31.875 11.8258 33.6777 15.3043L33.6777 15.3043Z" fill-rule="evenodd" fill="#3D40E0"/>
	<path d="M52.6272 13.6632L46.3313 13.6632C46.3313 10.9719 46.3066 8.35291 46.3811 5.73694C46.3867 5.54016 47.0977 5.20618 47.4839 5.20178C51.0186 5.15991 54.5535 5.17676 58.0889 5.17676C58.5342 5.17639 58.9792 5.17676 59.4868 5.17676C59.5129 4.75183 59.532 4.44238 59.562 3.95435C59.0566 3.95435 58.6199 3.95435 58.1831 3.95435C54.6069 3.95435 51.0305 3.93457 47.4546 3.96899C46.6328 3.97693 46.2317 3.7821 46.3066 2.87683C46.373 2.07166 46.3206 1.25671 46.3206 0.392456L63.9255 0.392456L63.9255 8.63794L50.925 8.63794L50.925 9.94836L64.2043 9.94836L64.2043 13.6039L57.7454 13.6039L57.7454 15.7374C59.8777 15.7374 61.9653 15.791 64.0486 15.7148C65.0903 15.6765 65.4424 16.0237 65.3489 17.0397C65.2749 17.8423 65.334 18.6575 65.334 19.5187L45.0884 19.5187L45.0884 15.7627L52.6272 15.7627L52.6272 13.6632Z" fill-rule="evenodd" fill="#3D40E0"/>
	<path d="M5.23755 4.50745L1.52783 4.50745L1.52783 0.401367L14.0247 0.401367L14.0247 4.47266L10.3464 4.47266C9.29053 9.29663 12.7639 12.0483 15.0891 15.3605L15.0891 0.0950928L19.626 0.0950928L19.626 7.03699L22.1987 7.03699L22.1987 11.135L19.6853 11.135L19.6853 20.252L15.1809 20.252L15.1809 16.0149C14.0647 16.975 13.1567 17.7561 12.0986 18.6663C10.6782 16.7874 9.27832 14.9355 7.84351 13.0371C6.26733 15.0287 4.70215 17.0074 3.05566 19.0881C1.95752 18.0834 0.999512 17.2072 0 16.2928C1.27197 14.5115 2.44946 12.7375 3.75659 11.0649C5.25708 9.14465 5.63037 7.01453 5.23755 4.50745L5.23755 4.50745Z" fill-rule="evenodd" fill="#3D40E0"/>
	<defs/>
</svg>
