<svg width="17.996582" height="18.000000" viewBox="0 0 17.9966 18" fill="none" xmlns="http://www.w3.org/2000/svg" xmlns:xlink="http://www.w3.org/1999/xlink">
	<desc>
			Created with Pixso.
	</desc>
	<path d="M8.97461 18C6.25684 18 3.53906 18 0.820801 18C0.253418 18 -0.0219727 17.7441 0.00146484 17.1934C0.139648 13.9277 1.67773 11.4609 4.57715 9.77441C4.69824 9.7041 4.76611 9.71875 4.86865 9.80566C7.26172 11.832 10.7051 11.8379 13.1123 9.81836C13.228 9.7207 13.3071 9.70703 13.4395 9.78418C15.9795 11.2529 17.4907 13.3857 17.9185 16.2197C17.9697 16.5566 17.9946 16.8965 17.9966 17.2363C17.9995 17.7305 17.7266 18 17.2153 18C14.4688 18 11.7217 18 8.97461 18L8.97461 18Z" fill-rule="evenodd" fill="#3D40E0"/>
	<path d="M4.00146 4.66309C4.00146 2.09863 6.24512 0.00195312 8.99219 0C11.75 -0.00195312 13.9961 2.09668 13.9932 4.67383C13.9902 7.18359 11.6641 9.34766 8.97363 9.3418C6.23242 9.33691 4.00146 7.2373 4.00146 4.66309L4.00146 4.66309Z" fill-rule="evenodd" fill="#3D40E0"/>
	<defs/>
</svg>
