<svg width="17.996796" height="18.000122" viewBox="0 0 17.9968 18.0001" fill="none" xmlns="http://www.w3.org/2000/svg" xmlns:xlink="http://www.w3.org/1999/xlink">
	<desc>
			Created with Pixso.
	</desc>
	<path d="M8.97488 18C6.25699 18 3.53885 18 0.820831 17.9999C0.253326 17.9999 -0.0220642 17.7438 0.00137329 17.1929C0.139557 13.927 1.67789 11.4608 4.57718 9.77393C4.69839 9.70349 4.76602 9.71802 4.86868 9.80518C7.26151 11.8323 10.7049 11.8379 13.1123 9.81763C13.2279 9.72046 13.3072 9.70703 13.4394 9.78369C15.9795 11.2528 17.4906 13.3853 17.9186 16.2192C17.9698 16.5564 17.9948 16.8958 17.9967 17.2366C17.9994 17.7307 17.7263 17.9995 17.2154 17.9996C14.4685 18.0002 11.7217 18 8.97488 18Z" fill-rule="evenodd" fill="#B1B2C3"/>
	<path d="M4.00198 4.66284C4.00211 2.09839 6.24551 0.00244141 8.99283 0.00012207C11.7505 -0.0020752 13.9965 2.09705 13.9936 4.67383C13.9909 7.18408 11.6647 9.34741 8.97427 9.34229C6.23318 9.33716 4.00198 7.2373 4.00198 4.66284Z" fill-rule="evenodd" fill="#B1B2C3"/>
	<defs/>
</svg>
