<svg width="18.000023" height="19.843262" viewBox="0 0 18 19.8433" fill="none" xmlns="http://www.w3.org/2000/svg" xmlns:xlink="http://www.w3.org/1999/xlink">
	<desc>
			Created with Pixso.
	</desc>
	<path d="M17.9978 7.87549C17.9978 8.0542 18.0037 8.18359 17.9963 8.31201C17.9797 8.61719 17.7405 8.85986 17.4417 8.88208C17.1204 8.90601 16.8328 8.71704 16.7883 8.40698C16.7415 8.07617 16.7498 7.73779 16.717 7.40479C16.5232 5.42773 15.7458 3.70996 14.408 2.24463C14.321 2.14893 14.2278 2.05933 14.1438 1.96143C13.9211 1.70264 13.9319 1.33496 14.1648 1.10474C14.4045 0.868164 14.7844 0.862061 15.0364 1.10767C15.429 1.49121 15.782 1.91064 16.1023 2.35742C17.2952 4.02197 17.9172 5.88135 17.9978 7.87549L17.9978 7.87549Z" fill-rule="evenodd" fill="#3E3E4C"/>
	<path d="M0.00146484 7.99292C0.108398 5.33545 1.07104 3.04492 2.93604 1.1416C3.20288 0.869629 3.57983 0.856934 3.83374 1.10059C4.09595 1.35278 4.09595 1.72827 3.81616 2.01318C2.81006 3.03857 2.07983 4.22949 1.64819 5.60034C1.37671 6.46143 1.24805 7.34424 1.23999 8.24658C1.23633 8.61621 0.976562 8.8811 0.62915 8.88477C0.287598 8.88818 0.0146484 8.62793 0.00195312 8.2832C-0.00195312 8.18652 0.00146484 8.08936 0.00146484 7.99292L0.00146484 7.99292Z" fill-rule="evenodd" fill="#3E3E4C"/>
	<path d="M16.6089 14.7485C15.3318 13.6162 14.7207 12.1699 14.7241 10.4548C14.7258 9.73804 14.7241 9.02124 14.7246 8.30469C14.7253 7.70703 14.6555 7.11768 14.4624 6.55273C13.696 4.31689 12.1641 2.97314 9.85571 2.55615C9.65601 2.52002 9.60645 2.45703 9.61279 2.2583C9.62915 1.74219 9.61792 1.2251 9.61865 0.708984C9.6189 0.598145 9.60938 0.489746 9.56665 0.386719C9.45508 0.119141 9.17578 -0.0395508 8.90112 0.00878906C8.61475 0.0585938 8.39941 0.300293 8.39551 0.602539C8.38843 1.18335 8.38867 1.76465 8.39526 2.3457C8.39648 2.47217 8.3689 2.51904 8.23584 2.53711C7.38989 2.65161 6.60034 2.93481 5.89209 3.41748C4.33813 4.47754 3.45386 5.94946 3.30273 7.84668C3.2334 8.72217 3.27832 9.60229 3.27905 10.48C3.28003 11.4128 3.0874 12.2949 2.66309 13.1243C2.32983 13.7744 1.88281 14.3306 1.33667 14.8096C0.966064 15.1353 0.786133 15.5527 0.837402 16.0483C0.918457 16.8257 1.51147 17.3599 2.28589 17.3621C3.46045 17.3657 4.6355 17.3645 5.81006 17.3608C5.93872 17.3606 5.99902 17.3811 6.04175 17.5312C6.36621 18.665 7.09229 19.4033 8.21631 19.7388C8.34131 19.7764 8.47949 19.7646 8.59326 19.8433L9.05298 19.8433C9.11694 19.7896 9.18066 19.7817 9.24438 19.8433L9.35986 19.8433C10.6018 19.6636 11.6543 18.7422 11.9636 17.5227C11.9976 17.3877 12.0525 17.3594 12.1809 17.3599C13.3557 17.3652 14.5305 17.3623 15.7051 17.3633C16.1362 17.3638 16.5029 17.2129 16.7979 16.8931C17.3074 16.3398 17.343 15.3994 16.6089 14.7485L16.6089 14.7485M8.95459 18.6016C8.20508 18.5859 7.42944 18.0137 7.29492 17.3701L10.7126 17.3701C10.5417 18.0684 9.75293 18.6184 8.95459 18.6016L8.95459 18.6016M15.7588 16.1206C15.7024 16.1284 15.6438 16.1228 15.5867 16.1228C13.3958 16.123 11.2056 16.123 9.01514 16.123C6.80518 16.123 4.5957 16.123 2.38574 16.1226C2.2981 16.1226 2.20557 16.1392 2.12891 16.0742C2.01465 15.9773 2.0293 15.8462 2.17676 15.7148C2.66406 15.2817 3.09033 14.7959 3.43921 14.2422C4.16138 13.0969 4.50684 11.8442 4.50488 10.4863C4.50391 9.62134 4.46753 8.75537 4.5271 7.89111C4.66089 5.94629 6.11475 4.25732 8.00317 3.8374C10.5757 3.26611 13.0415 4.96631 13.45 7.59619C13.4905 7.85742 13.5005 8.12256 13.4995 8.38794C13.4966 9.15625 13.4824 9.92554 13.5034 10.6934C13.5564 12.6641 14.3096 14.3157 15.7524 15.644C15.7993 15.687 15.8516 15.7266 15.8921 15.7754C16.0076 15.9153 15.938 16.0947 15.7588 16.1206L15.7588 16.1206Z" fill-rule="evenodd" fill="#3E3E4C"/>
	<path d="M9.05176 19.8428L9.24561 19.8428C9.18066 19.8115 9.11621 19.8115 9.05176 19.8428L9.05176 19.8428Z" fill-rule="evenodd" fill="#3E3E4C"/>
	<path d="M9.05176 19.8433C9.11621 19.8115 9.18066 19.8115 9.24561 19.8433C9.18066 19.7812 9.11621 19.7896 9.05176 19.8433L9.05176 19.8433Z" fill-rule="evenodd" fill="#3E3E4C"/>
	<defs/>
</svg>
