<svg width="17.996376" height="18.000000" viewBox="0 0 17.9964 18" fill="none" xmlns="http://www.w3.org/2000/svg" xmlns:xlink="http://www.w3.org/1999/xlink">
	<desc>
			Created with Pixso.
	</desc>
	<path d="M17.996 2.20691C17.9958 0.877319 17.1181 0.000366211 15.7878 0.000366211C11.2607 -0.00012207 6.7338 -0.00012207 2.2067 0.000366211C0.878334 0.000610352 0.000648499 0.879272 0.000404358 2.20911C-8.39233e-05 4.47302 0.000160217 6.73718 0.000160217 9.0011C0.000160217 11.265 -0.000328064 13.5289 0.000404358 15.7928C0.000648499 17.1205 0.880531 17.9996 2.2089 17.9996C6.73576 18.0001 11.2629 18.0001 15.79 17.9996C17.1183 17.9996 17.996 17.121 17.996 15.7909C17.9965 11.2628 17.9965 6.73499 17.996 2.20691ZM2.77091 4.14929C2.77726 3.75745 3.0673 3.4696 3.45988 3.4635C3.92106 3.45667 4.38248 3.45691 4.84367 3.4635C5.23502 3.46912 5.52824 3.75818 5.53507 4.14783C5.54288 4.61633 5.54362 5.08508 5.53458 5.55334C5.52702 5.9325 5.23624 6.21716 4.85661 6.22888C4.61906 6.23645 4.38078 6.23035 4.14298 6.23035C3.91959 6.23059 3.69621 6.2345 3.47282 6.22986C3.06828 6.22107 2.77604 5.93518 2.77067 5.53333C2.76432 5.0719 2.76334 4.61047 2.77091 4.14929ZM5.5358 13.8322C5.53043 14.2477 5.23966 14.5306 4.82047 14.5377C4.59708 14.5414 4.3737 14.5382 4.15031 14.5382C3.97721 14.5382 3.80412 14.5409 3.63126 14.5397C3.57365 14.5394 3.51603 14.5385 3.45841 14.537C3.06754 14.5262 2.77677 14.2384 2.77091 13.848C2.76359 13.3868 2.76408 12.9252 2.77067 12.464C2.77653 12.0609 3.06754 11.7755 3.47428 11.7706C3.92838 11.7653 4.38248 11.7648 4.83659 11.7709C5.23893 11.776 5.52995 12.0668 5.53556 12.4696C5.54191 12.9237 5.54166 13.3781 5.5358 13.8322ZM5.5341 9.71277C5.52604 10.0902 5.23234 10.3761 4.85099 10.3824C4.38273 10.3903 3.91398 10.391 3.44572 10.3817C3.06803 10.3744 2.7819 10.0817 2.77067 9.70325C2.76701 9.58435 2.76676 9.46545 2.76725 9.34656C2.76798 9.22742 2.7692 9.10852 2.7692 8.98962C2.7692 8.87415 2.76798 8.75891 2.76725 8.64343C2.76676 8.5282 2.76701 8.41272 2.77067 8.29749C2.78214 7.91614 3.06437 7.62561 3.44376 7.61829C3.91935 7.60925 4.39542 7.60852 4.87077 7.61877C5.23746 7.62683 5.52628 7.91711 5.5341 8.28552C5.54411 8.76111 5.54411 9.23718 5.5341 9.71277ZM14.4584 13.8458C12.2021 13.8466 9.94572 13.8466 7.68937 13.8458C7.23405 13.8456 6.91886 13.556 6.92252 13.1473C6.92594 12.7384 7.2382 12.4623 7.70133 12.4618C8.83292 12.4611 9.96476 12.4615 11.0966 12.4615C12.2138 12.4615 13.3312 12.4611 14.4486 12.4618C14.9093 12.4623 15.224 12.7416 15.2267 13.1488C15.2294 13.5577 14.9147 13.8456 14.4584 13.8458ZM14.5194 9.6908C13.3732 9.69495 12.227 9.69226 11.0807 9.69226C9.93473 9.69226 8.78849 9.69275 7.64225 9.69202C7.32951 9.69177 7.10319 9.54602 6.97575 9.26306C6.85978 9.005 6.91203 8.68542 7.13663 8.51355C7.27579 8.40735 7.47013 8.31726 7.6403 8.31628C9.93253 8.30359 12.225 8.30652 14.5173 8.3092C14.9218 8.30969 15.2262 8.61414 15.2267 8.9989C15.2272 9.38391 14.9237 9.68933 14.5194 9.6908ZM14.4584 5.53821C12.2021 5.53894 9.94572 5.53894 7.68961 5.53821C7.23405 5.53796 6.91911 5.24841 6.92252 4.83972C6.92594 4.43103 7.2382 4.15466 7.70133 4.15417C8.83292 4.15344 9.96476 4.15393 11.0966 4.15393C12.2138 4.15393 13.3312 4.15344 14.4484 4.15417C14.9091 4.15466 15.224 4.43396 15.2267 4.84119C15.2294 5.25012 14.9147 5.53796 14.4584 5.53821Z" fill-rule="evenodd" fill="#B1B2C3"/>
	<defs/>
</svg>
