<svg width="17.996582" height="18.000000" viewBox="0 0 17.9966 18" fill="none" xmlns="http://www.w3.org/2000/svg" xmlns:xlink="http://www.w3.org/1999/xlink">
	<desc>
			Created with Pixso.
	</desc>
	<path d="M17.9961 2.20703C17.9961 0.876953 17.1182 0 15.7881 0C11.2607 0 6.73389 0 2.20703 0C0.878418 0.000976562 0.000976562 0.878906 0.000488281 2.20898C0 4.47266 0 6.7373 0 9.00098C0 11.2656 0 13.5293 0.000488281 15.793C0.000976562 17.1211 0.880859 18 2.20898 18C6.73584 18 11.2627 18 15.79 18C17.1182 18 17.9961 17.1211 17.9961 15.791C17.9966 11.2627 17.9966 6.73535 17.9961 2.20703L17.9961 2.20703M2.771 4.14941C2.77734 3.75781 3.06738 3.46973 3.45996 3.46387C3.9209 3.45703 4.38281 3.45703 4.84375 3.46387C5.23535 3.46875 5.52832 3.75781 5.53516 4.14844C5.54297 4.61621 5.54395 5.08496 5.53467 5.55371C5.52734 5.93262 5.23633 6.2168 4.85645 6.22852C4.61914 6.23633 4.38086 6.23047 4.14307 6.23047C3.91992 6.23047 3.69629 6.23438 3.47266 6.23047C3.06836 6.2207 2.77637 5.93555 2.77051 5.5332C2.76465 5.07227 2.76367 4.61035 2.771 4.14941L2.771 4.14941M5.53613 13.832C5.53027 14.248 5.23975 14.5312 4.82031 14.5381C4.59717 14.541 4.37402 14.5381 4.15039 14.5381C3.97754 14.5381 3.8042 14.541 3.63135 14.54C3.57373 14.5391 3.51611 14.5391 3.4585 14.5371C3.06738 14.5264 2.77686 14.2383 2.771 13.8477C2.76367 13.3867 2.76416 12.9258 2.77051 12.4639C2.77637 12.0605 3.06738 11.7754 3.47461 11.7705C3.92871 11.7656 4.38281 11.7646 4.83691 11.7715C5.23926 11.7764 5.53027 12.0664 5.53564 12.4697C5.54199 12.9238 5.54199 13.3779 5.53613 13.832L5.53613 13.832M5.53418 9.71289C5.52637 10.0898 5.23242 10.376 4.85107 10.3828C4.38281 10.3906 3.91406 10.3906 3.4458 10.3818C3.06836 10.375 2.78223 10.082 2.77051 9.70312C2.76709 9.58398 2.7666 9.46582 2.76758 9.34668C2.76807 9.22754 2.76953 9.1084 2.76953 8.99023C2.76953 8.87402 2.76807 8.75879 2.76758 8.64355C2.7666 8.52832 2.76709 8.41309 2.77051 8.29785C2.78223 7.91602 3.06445 7.62598 3.44385 7.61816C3.91943 7.60938 4.39551 7.6084 4.87109 7.61914C5.2373 7.62695 5.52637 7.91699 5.53418 8.28516C5.54395 8.76172 5.54395 9.2373 5.53418 9.71289L5.53418 9.71289M14.4585 13.8457C12.2021 13.8467 9.9458 13.8467 7.68945 13.8457C7.23438 13.8457 6.91895 13.5566 6.92285 13.1475C6.92578 12.7383 7.23828 12.4629 7.70117 12.4619C8.83301 12.4609 9.96484 12.4619 11.0967 12.4619C12.2139 12.4619 13.3311 12.4609 14.4487 12.4619C14.9092 12.4629 15.2241 12.7422 15.2266 13.1484C15.2295 13.5576 14.915 13.8457 14.4585 13.8457L14.4585 13.8457M14.5195 9.69141C13.373 9.69531 12.2271 9.69238 11.0811 9.69238C9.93457 9.69238 8.78857 9.69336 7.64258 9.69238C7.32959 9.69141 7.10352 9.5459 6.97559 9.26367C6.85986 9.00488 6.91211 8.68555 7.13672 8.51367C7.27588 8.40723 7.47021 8.31738 7.64062 8.31641C9.93262 8.30371 12.2251 8.30664 14.5176 8.30957C14.9219 8.30957 15.2266 8.61426 15.2266 8.99902C15.2275 9.38379 14.9238 9.68945 14.5195 9.69141L14.5195 9.69141M14.4585 5.53809C12.2021 5.53906 9.9458 5.53906 7.68945 5.53809C7.23438 5.53809 6.91895 5.24805 6.92285 4.83984C6.92578 4.43164 7.23828 4.1543 7.70117 4.1543C8.83301 4.15332 9.96484 4.1543 11.0967 4.1543C12.2139 4.1543 13.3311 4.15332 14.4482 4.1543C14.9092 4.1543 15.2241 4.43359 15.2266 4.8418C15.2295 5.25 14.915 5.53809 14.4585 5.53809L14.4585 5.53809Z" fill-rule="evenodd" fill="#3D40E0"/>
	<defs/>
</svg>
