<svg width="20.005859" height="20.000000" viewBox="0 0 20.0059 20" fill="none" xmlns="http://www.w3.org/2000/svg" xmlns:xlink="http://www.w3.org/1999/xlink">
	<desc>
			Created with Pixso.
	</desc>
	<path d="M19.52 18.342C17.7671 16.5781 16.0063 14.8225 14.2471 13.0654C14.1929 13.011 14.1245 12.97 14.0557 12.917C14.1479 12.791 14.2129 12.7031 14.2778 12.6157C15.0283 11.6062 15.5239 10.4824 15.7197 9.24146C16.1138 6.73779 15.4707 4.521 13.7861 2.625C12.5391 1.22168 10.9614 0.399658 9.11475 0.0893555C8.89111 0.0522461 8.66602 0.0297852 8.44092 0L7.38574 0C7.22656 0.0231934 7.06738 0.0473633 6.90771 0.0698242C4.55371 0.402344 2.69238 1.55371 1.35938 3.50732C0.242676 5.14307 -0.188477 6.97119 0.0751953 8.94385C0.350586 11.0029 1.30029 12.7061 2.89697 14.0193C4.604 15.4233 6.58252 16.0137 8.78906 15.7788C10.1831 15.6304 11.4473 15.1318 12.5791 14.3027C12.6821 14.2271 12.7856 14.1521 12.9141 14.0586C12.9785 14.1348 13.0288 14.2031 13.0884 14.2627C14.8784 16.0535 16.6689 17.8438 18.4604 19.6333C18.5342 19.7065 18.6079 19.782 18.6929 19.8408C18.9678 20.0317 19.2568 20.0503 19.5591 19.9004C19.7988 19.7817 19.9102 19.5659 20.0059 19.3359L20.0059 18.9844C19.8452 18.769 19.707 18.531 19.52 18.342L19.52 18.342M7.91797 14.1643C4.479 14.1758 1.67041 11.3511 1.67285 7.91504C1.67578 4.47241 4.48486 1.66406 7.92285 1.67163C11.3545 1.6792 14.147 4.43457 14.1724 7.91943C14.1396 11.3975 11.377 14.1523 7.91797 14.1643L7.91797 14.1643Z" fill-rule="evenodd" fill="#3E3E4C"/>
	<defs/>
</svg>
