<svg width="34.362061" height="20.000000" viewBox="0 0 34.3621 20" fill="none" xmlns="http://www.w3.org/2000/svg" xmlns:xlink="http://www.w3.org/1999/xlink">
	<desc>
			Created with Pixso.
	</desc>
	<path d="M30.0344 17.1895C30.1274 16.999 30.2141 16.9536 30.3943 16.9595C30.7749 16.9731 31.1677 16.9385 31.5427 16.9692C32.1458 17.019 32.6304 16.7979 33.0061 16.2378L34.3621 9.50488C34.2593 9.43359 34.3391 9.30664 34.3323 9.20801C34.2432 7.90283 33.4119 7.29297 32.2405 7.00146C32.0059 6.94287 31.7576 6.92773 31.5029 6.92822C29.1155 6.93213 26.729 6.93115 24.3425 6.93066C23.5776 6.93018 23.2727 6.54395 23.428 5.77246C23.8149 3.84863 24.2029 1.92432 24.5903 0L6.36816 0C5.74902 0.261719 5.45215 0.705566 5.36865 1.32031C5.2959 1.85645 5.15137 2.39697 5.05493 2.93506C5.02197 3.11865 4.96191 3.18311 4.77344 3.17236C4.48096 3.15674 4.1814 3.16602 3.88428 3.16895C3.27344 3.1748 2.74561 3.58789 2.62769 4.14941C2.50684 4.72559 2.87012 5.14648 3.50122 5.14746C5.05054 5.1499 6.60059 5.14844 8.15015 5.14844C8.24927 5.14844 8.34863 5.14697 8.44678 5.1499C9.04907 5.17139 9.32471 5.49707 9.21436 6.05518C9.10669 6.59912 8.59692 7.04639 8.04224 7.05908C7.46826 7.07275 6.89868 7.0625 6.32715 7.0625C5.0083 7.0625 3.68433 7.08496 2.37256 7.05273C1.76123 7.03809 1.28052 7.22461 0.904053 7.78857L0.797607 8.31689C0.947021 8.88086 1.35596 9.05762 1.97021 9.05273C4.81079 9.03076 7.64453 9.04346 10.481 9.04199C10.9009 9.04199 11.1953 9.20166 11.322 9.57666C11.4368 9.9165 11.3442 10.2563 11.072 10.5742C10.7878 10.9058 10.4395 11.0259 10.0488 11.0254C7.77417 11.021 5.49805 11.0229 3.22241 11.0229C2.67285 11.0229 2.11572 11.0513 1.57544 11.0156C0.968262 10.9761 0.482666 11.1841 0.106201 11.749L0 12.2773C0.149414 12.8408 0.549561 13.0513 1.17236 13.0103C1.7041 12.9756 2.22607 13.0132 2.75586 12.9985C2.96509 12.9927 3.02466 13.0405 2.97607 13.2637C2.78735 14.1309 2.61938 14.9985 2.44678 15.8662C2.30811 16.5625 2.63062 16.9609 3.33228 16.9634C3.8811 16.9648 4.42993 16.9673 4.98047 16.9609C5.12793 16.9595 5.20947 16.9819 5.22266 17.1504C5.3396 18.6187 6.11572 19.5293 7.51318 19.9087C7.57642 19.9258 7.67676 19.9009 7.68774 20L8.81006 20C9.11377 19.915 9.42163 19.8501 9.72095 19.7417C10.9961 19.2788 11.9336 18.4238 12.5298 17.21C12.6289 17.0078 12.7158 16.959 12.9116 16.9595C16.0869 16.9653 19.2637 16.9639 22.4402 16.9629C22.585 16.9629 22.7046 16.9478 22.72 17.1475C22.8328 18.6182 23.6108 19.5288 25.009 19.9087C25.0723 19.9258 25.1729 19.9004 25.1838 20L26.3062 20C26.521 19.9453 26.7373 19.9004 26.9507 19.834C28.3486 19.397 29.3865 18.519 30.0344 17.1895L30.0344 17.1895M8.7373 18.0195C7.72681 18.0239 7.06543 17.2168 7.26123 16.2188C7.45801 15.2144 8.43042 14.3984 9.4397 14.3896C10.4392 14.3813 11.0974 15.2036 10.8943 16.2065C10.6941 17.1958 9.71899 18.0151 8.7373 18.0195L8.7373 18.0195M26.2349 18.0195C25.2244 18.0244 24.5618 17.2178 24.7568 16.2202C24.9534 15.2158 25.925 14.3989 26.9343 14.3896C27.9341 14.3809 28.593 15.2021 28.3906 16.2051C28.1909 17.1948 27.2168 18.0146 26.2349 18.0195L26.2349 18.0195Z" fill-rule="evenodd" fill="#3D40E0"/>
	<path d="M25.1511 5.34912C26.5186 5.34961 27.8857 5.34912 29.2532 5.34912L30.7373 5.34912C29.8823 2.9165 28.7397 0.808105 25.895 0.23877C25.5647 1.87842 25.2432 3.50684 24.9023 5.13428C24.8472 5.39746 25.0044 5.34912 25.1511 5.34912L25.1511 5.34912Z" fill-rule="evenodd" fill="#3D40E0"/>
	<defs/>
</svg>
