<svg width="101.830605" height="123.661133" viewBox="0 0 101.831 123.661" fill="none" xmlns="http://www.w3.org/2000/svg" xmlns:xlink="http://www.w3.org/1999/xlink">
	<desc>
			Created with Pixso.
	</desc>
	<mask id="mask1_2194" mask-type="alpha" maskUnits="userSpaceOnUse" x="0.000000" y="0.000000" width="101.830605" height="123.661133">
		<rect width="101.830605" height="123.661179" fill="#EDEDF1"/>
	</mask>
	<g mask="url(#mask1_2194)">
		<path d="M101.825 110.817C101.676 105.585 101.369 100.358 101.115 95.1289C100.533 83.1289 99.9443 71.1294 99.3492 59.1294C99.0201 52.4873 98.7856 45.8379 98.3035 39.2061C97.8239 32.6084 92.3765 27.8872 85.4989 27.8413C82.9142 27.8242 80.3278 27.7905 77.7453 27.8618C76.7724 27.8892 76.5573 27.5884 76.6012 26.7144C76.7006 24.7417 76.6316 22.7661 76.3042 20.8105C74.572 10.4653 66.3659 2.46875 55.3829 0.414062C45.1676 -1.49805 34.2646 3.34619 28.8312 12.2046C26.0996 16.6582 25.0328 21.4971 25.298 26.6206C25.3523 27.667 24.9967 27.8843 23.9806 27.8613C21.2194 27.7974 18.4543 27.7988 15.6927 27.8613C9.52093 28 3.96884 32.9224 3.62039 38.8555C2.89988 51.1055 2.35379 63.3657 1.74336 75.6216C1.23765 85.7788 0.730157 95.9355 0.250536 106.093C0.133312 108.575 -0.247667 111.08 0.248035 113.541C1.47425 119.626 6.64285 123.637 13.1985 123.647C25.7655 123.665 38.3328 123.652 50.8998 123.652C63.5561 123.652 76.2124 123.678 88.8687 123.642C96.4047 123.621 102.031 118.063 101.825 110.817L101.825 110.817M28.9191 46.603C31.5377 45.9883 33.6409 47.4287 34.379 50.3423C36.1509 57.3335 41.8181 62.6035 48.4488 63.4258C55.9544 64.3564 62.6372 61.0249 66.1364 54.5952C66.9048 53.1836 67.4009 51.6675 67.793 50.1113C68.4863 47.3618 70.7432 45.9424 73.2943 46.625C75.5988 47.2417 76.8028 49.5342 76.1856 52.1294C73.3765 63.9448 63.1497 72.0156 51.0034 72.0029C39.0454 71.9907 28.8891 64.0386 25.9906 52.418C25.2755 49.5508 26.4706 47.1782 28.9191 46.603L28.9191 46.603M39.8528 12.2603C44.9374 8.15625 50.7686 7.12988 56.9658 9.37695C63.0529 11.584 66.6318 15.9829 67.8337 22.1592C68.1407 23.7358 67.9799 25.3237 68.0839 26.9028C68.1411 27.7686 67.7679 27.8564 67.0117 27.8525C61.6244 27.8247 56.2371 27.8374 50.8494 27.8374C45.5954 27.8374 40.341 27.8027 35.0877 27.8662C33.9919 27.8794 33.8454 27.5361 33.8039 26.5864C33.5573 20.9072 35.2528 15.9731 39.8528 12.2603L39.8528 12.2603Z" fill-rule="evenodd" fill="#EDEDF1"/>
	</g>
	<defs/>
</svg>
