<svg width="20.000000" height="18.000122" viewBox="0 0 20 18.0001" fill="none" xmlns="http://www.w3.org/2000/svg" xmlns:xlink="http://www.w3.org/1999/xlink">
	<desc>
			Created with Pixso.
	</desc>
	<path d="M19.9034 4.67468C19.7574 4.03174 19.5423 3.41895 19.2147 2.8457C18.6793 1.90869 17.9507 1.17114 17.0023 0.660767C16.3398 0.303833 15.6325 0.108154 14.8817 0.0388184C13.8233 -0.0587158 12.8369 0.152344 11.9137 0.6698C11.2169 1.06006 10.6309 1.58276 10.1426 2.21753C10.0092 2.39136 9.99445 2.38867 9.85687 2.21838C9.5733 1.86707 9.27466 1.53198 8.92334 1.24573C7.41821 0.0185547 5.72449 -0.301392 3.89703 0.283569C2.10028 0.858643 0.943176 2.12866 0.310242 3.89893C0.131226 4.39966 0.0408936 4.9187 0 5.44763L0 5.64417L0 5.80127L0 6.35156L0 6.50879L0 6.78406C0.0579834 7.03149 0.0478516 7.28772 0.105347 7.5365C0.35614 8.62061 0.855713 9.58484 1.50922 10.4709C2.16589 11.3617 2.92072 12.1625 3.73029 12.9159C4.31274 13.4578 4.90051 13.9939 5.50018 14.5156C6.68542 15.547 7.88434 16.5624 9.06122 17.6033C9.651 18.1254 10.3615 18.1403 10.9362 17.6005C10.9885 17.5513 11.0406 17.5021 11.0954 17.4556C11.8915 16.7816 12.6724 16.09 13.4644 15.4111C14.2363 14.7493 14.9977 14.0752 15.7542 13.3954C16.5949 12.6401 17.394 11.8455 18.1093 10.9686C18.8248 10.0913 19.4077 9.13647 19.757 8.04834C19.8893 7.63623 19.9559 7.21265 20 6.78406L20 6.5874L20 6.43018L20 5.88L20 5.72278L20 5.48694C19.944 5.21936 19.9644 4.94385 19.9034 4.67468Z" fill-rule="evenodd" fill="#B1B2C3"/>
	<defs/>
</svg>
