<svg width="20.000000" height="18.000000" viewBox="0 0 20 18" fill="none" xmlns="http://www.w3.org/2000/svg" xmlns:xlink="http://www.w3.org/1999/xlink">
	<desc>
			Created with Pixso.
	</desc>
	<path d="M19.9033 4.6748C19.7573 4.03125 19.5425 3.41895 19.2148 2.8457C18.6792 1.9082 17.9507 1.1709 17.0024 0.661133C16.3398 0.303711 15.6323 0.108398 14.8818 0.0390625C13.8232 -0.0585938 12.8369 0.152344 11.9136 0.669922C11.2168 1.06055 10.6309 1.58301 10.1426 2.21777C10.0093 2.3916 9.99463 2.38867 9.85693 2.21875C9.57324 1.86719 9.27441 1.53223 8.92334 1.24609C7.41797 0.0185547 5.72461 -0.301758 3.89697 0.283203C2.1001 0.858398 0.943359 2.12891 0.310059 3.89844C0.131348 4.39941 0.0410156 4.91895 0 5.44727L0 5.64453L0 5.80078L0 6.35156L0 6.50879L0 6.78418C0.0581055 7.03125 0.0478516 7.28809 0.105469 7.53613C0.355957 8.62109 0.855469 9.58496 1.50928 10.4707C2.16602 11.3613 2.9209 12.1621 3.73047 12.916C4.3125 13.458 4.90039 13.9941 5.5 14.5156C6.68555 15.5469 7.88428 16.5625 9.06104 17.6035C9.65088 18.125 10.3613 18.1406 10.936 17.6006C10.9883 17.5508 11.0405 17.502 11.0952 17.4551C11.8916 16.7812 12.6724 16.0898 13.4644 15.4111C14.2363 14.749 14.9976 14.0752 15.7544 13.3955C16.5947 12.6406 17.394 11.8457 18.1094 10.9688C18.8247 10.0918 19.4077 9.13672 19.7568 8.04883C19.8892 7.63672 19.9561 7.21289 20 6.78418L20 6.58789L20 6.42969L20 5.87988L20 5.72266L20 5.4873C19.9438 5.21973 19.9644 4.94336 19.9033 4.6748L19.9033 4.6748Z" fill-rule="evenodd" fill="#3D40E0"/>
	<defs/>
</svg>
